Title                            : The Warrior's Way
Year                             : 2010
Genre                            : Action | Fantasy | Western
iMDB URL                         : http://www.imdb.com/title/tt1032751/

Complete name                    : The.Warriors.Way.2010.BRRIP.720P.H264-ZEKTORM.mp4
Format                           : MPEG-4
Format profile                   : Base Media
Codec ID                         : isom
File size                        : 2.05 GiB
Duration                         : 1h 40mn
Overall bit rate                 : 2929 Kbps
Subtitles                        : English (Format: srt)

Video
ID                               : 1
Format                           : AVC
Format/Info                      : Advanced Video Codec
Format profile                   : High@L4.0
Format settings, CABAC           : Yes
Format settings, ReFrames        : 8 frames
Codec ID                         : avc1
Codec ID/Info                    : Advanced Video Coding
Duration                         : 1h 40mn
Bit rate mode                    : Variable
Bit rate                         : 2699 Kbps
Width                            : 1280 pixels
Height                           : 528 pixels
Display aspect ratio             : 2.424
Frame rate mode                  : Constant
Frame rate                       : 23.976 fps
Resolution                       : 24 bits
Colorimetry                      : 4:2:0
Scan type                        : Progressive
Bits/(Pixel*Frame)               : 0.167
Stream size                      : 1.89 GiB (92%)
Title                            : Video
Writing library                  : x264

Audio
ID                               : 2
Format                           : AAC
Format/Info                      : Advanced Audio Codec
Format version                   : Version 4
Format profile                   : LC
Format settings, SBR             : Yes
Format settings, PS              : No
Codec ID                         : 40
Duration                         : 1h 40mn
Bit rate mode                    : Variable
Bit rate                         : 227 Kbps
Maximum bit rate                 : 295 Kbps
Channel(s)                       : 6 channels
Channel positions                : Front: L C R, Rear: L R, LFE
Sampling rate                    : 48.0 KHz
Resolution                       : 16 bits
Stream size                      : 163 MiB (8%)
Title                            : English
Language                         : English



Screenshots:
 
http://i.min.us/ilYePA.png
 
http://i.min.us/ijLiF0.png
 
http://i.min.us/ijLC5o.png
 
http://i.min.us/ijLGL6.png
